<mxfile host="app.diagrams.net" modified="2020-11-20T06:50:13.085Z" agent="5.0 (Windows NT 10.0; Win64; x64) AppleWebKit/537.36 (KHTML, like Gecko) Chrome/87.0.4280.66 Safari/537.36" etag="3Ds1EoSArazUWj2V5sZh" version="13.10.0" type="github">
  <diagram id="Y7SQCMJTfcvXL4m6NztR" name="第 1 页">
    <mxGraphModel dx="1422" dy="706" grid="1" gridSize="10" guides="1" tooltips="1" connect="1" arrows="1" fold="1" page="1" pageScale="1" pageWidth="827" pageHeight="1169" math="0" shadow="0">
      <root>
        <mxCell id="0" />
        <mxCell id="1" parent="0" />
        <mxCell id="lhSDqNapI21GEPoB7st2-11" style="edgeStyle=none;rounded=0;orthogonalLoop=1;jettySize=auto;html=1;exitX=0.5;exitY=1;exitDx=0;exitDy=0;" edge="1" parent="1" source="lhSDqNapI21GEPoB7st2-1" target="lhSDqNapI21GEPoB7st2-10">
          <mxGeometry relative="1" as="geometry" />
        </mxCell>
        <mxCell id="lhSDqNapI21GEPoB7st2-1" value="公安内网" style="ellipse;whiteSpace=wrap;html=1;" vertex="1" parent="1">
          <mxGeometry x="350" y="300" width="106" height="50" as="geometry" />
        </mxCell>
        <mxCell id="lhSDqNapI21GEPoB7st2-6" style="rounded=0;orthogonalLoop=1;jettySize=auto;html=1;exitX=0.5;exitY=1;exitDx=0;exitDy=0;entryX=0.5;entryY=0;entryDx=0;entryDy=0;" edge="1" parent="1" source="lhSDqNapI21GEPoB7st2-2" target="lhSDqNapI21GEPoB7st2-1">
          <mxGeometry relative="1" as="geometry" />
        </mxCell>
        <mxCell id="lhSDqNapI21GEPoB7st2-2" value="电子警察" style="rounded=1;whiteSpace=wrap;html=1;fillColor=#FF0000;strokeColor=#FF0000;fontColor=#FFFFFF;" vertex="1" parent="1">
          <mxGeometry x="223" y="200" width="80" height="40" as="geometry" />
        </mxCell>
        <mxCell id="lhSDqNapI21GEPoB7st2-7" style="edgeStyle=none;rounded=0;orthogonalLoop=1;jettySize=auto;html=1;exitX=0.5;exitY=1;exitDx=0;exitDy=0;" edge="1" parent="1" source="lhSDqNapI21GEPoB7st2-3">
          <mxGeometry relative="1" as="geometry">
            <mxPoint x="400" y="300" as="targetPoint" />
          </mxGeometry>
        </mxCell>
        <mxCell id="lhSDqNapI21GEPoB7st2-3" value="事故研判" style="rounded=1;whiteSpace=wrap;html=1;fillColor=#FF0000;strokeColor=#FF0000;fontColor=#FFFFFF;" vertex="1" parent="1">
          <mxGeometry x="313" y="200" width="80" height="40" as="geometry" />
        </mxCell>
        <mxCell id="lhSDqNapI21GEPoB7st2-8" style="edgeStyle=none;rounded=0;orthogonalLoop=1;jettySize=auto;html=1;exitX=0.5;exitY=1;exitDx=0;exitDy=0;entryX=0.5;entryY=0;entryDx=0;entryDy=0;" edge="1" parent="1" source="lhSDqNapI21GEPoB7st2-4" target="lhSDqNapI21GEPoB7st2-1">
          <mxGeometry relative="1" as="geometry" />
        </mxCell>
        <mxCell id="lhSDqNapI21GEPoB7st2-4" value="联勤协调" style="rounded=1;whiteSpace=wrap;html=1;fillColor=#FF0000;strokeColor=#FF0000;fontColor=#FFFFFF;" vertex="1" parent="1">
          <mxGeometry x="403" y="200" width="80" height="40" as="geometry" />
        </mxCell>
        <mxCell id="lhSDqNapI21GEPoB7st2-9" style="edgeStyle=none;rounded=0;orthogonalLoop=1;jettySize=auto;html=1;exitX=0.5;exitY=1;exitDx=0;exitDy=0;" edge="1" parent="1" source="lhSDqNapI21GEPoB7st2-5">
          <mxGeometry relative="1" as="geometry">
            <mxPoint x="400" y="300" as="targetPoint" />
          </mxGeometry>
        </mxCell>
        <mxCell id="lhSDqNapI21GEPoB7st2-5" value="道路拥堵预警" style="rounded=1;whiteSpace=wrap;html=1;fillColor=#FF0000;strokeColor=#FF0000;fontColor=#FFFFFF;" vertex="1" parent="1">
          <mxGeometry x="493" y="200" width="90" height="40" as="geometry" />
        </mxCell>
        <mxCell id="lhSDqNapI21GEPoB7st2-10" value="公安局联网平台" style="ellipse;whiteSpace=wrap;html=1;" vertex="1" parent="1">
          <mxGeometry x="344.5" y="391" width="117" height="50" as="geometry" />
        </mxCell>
      </root>
    </mxGraphModel>
  </diagram>
</mxfile>
